# xmcd
#
# Track frame offsets:
#	150
#	13558
#	26965
#	39640
#	52360
#	67423
#	80405
#	93923
#	106820
#	119795
#	131470
#	146885
#	158828
#	170880
#	183110
#	194413
#	208393
#	219668
#	230240
#	242015
#	253425
#	268265
#	281830
#	294065
#
# Disc length: 4072 seconds
#
# Revision: 3
# Processed by: cddbd v1.5.2PL0 Copyright (c) Steve Scherf et al.
# Submitted via: EZCDAudioConverter 3.1.0.1
#
DISCID=8d0fe618
DTITLE=Augusto Calheiros - Augusto Calheiros - Revivendo
DYEAR=1999
DGENRE=Samba
TTITLE0=Célia
TTITLE1=Caboclo Vingador
TTITLE2=Pisa no Chão Devagar
TTITLE3=Bela
TTITLE4=Alma de Tupi
TTITLE5=Senhor da Floresta
TTITLE6=Dúvida
TTITLE7=Vida de Caboclo
TTITLE8=Meu Ranchinho
TTITLE9=Prelúdios de Sonata
TTITLE10=Céu do Brasil
TTITLE11=Adeus Pilar
TTITLE12=Fatal Desilusão
TTITLE13=Serenata Matuta
TTITLE14=Garoto da Rua
TTITLE15=Sonhando ao Mar
TTITLE16=Meu caboclo
TTITLE17=Casa Desmoronada
TTITLE18=História de Mãe Preta
TTITLE19=Novo Éden
TTITLE20=Grande é Teu Amor
TTITLE21=Sonho de Ilusões
TTITLE22=Brasil Hospitaleiro
TTITLE23=Paixão de Caboclo
EXTD=
EXTT0=
EXTT1=
EXTT2=
EXTT3=
EXTT4=
EXTT5=
EXTT6=
EXTT7=
EXTT8=
EXTT9=
EXTT10=
EXTT11=
EXTT12=
EXTT13=
EXTT14=
EXTT15=
EXTT16=
EXTT17=
EXTT18=
EXTT19=
EXTT20=
EXTT21=
EXTT22=
EXTT23=
PLAYORDER=
